<?xml version="1.0" encoding="utf-8"?>
<!-- Generator: Adobe Illustrator 21.1.0, SVG Export Plug-In . SVG Version: 6.00 Build 0)  -->
<svg version="1.1" id="Слой_1" xmlns="http://www.w3.org/2000/svg" xmlns:xlink="http://www.w3.org/1999/xlink" x="0px" y="0px"
	 viewBox="0 0 103.9 5" style="enable-background:new 0 0 103.9 5;" xml:space="preserve">
<style type="text/css">
	.st0{fill:#343434;}
	.st1{fill-rule:evenodd;clip-rule:evenodd;fill:#343434;}
	.st2{fill:#181818;}
	.st3{fill:none;stroke:#000000;stroke-miterlimit:10;}
	.st4{fill:#383838;}
	.st5{fill:#13110F;}
	.st6{fill:#342A32;}
	.st7{fill:#E5E1EA;}
	.st8{fill:#FEF4F2;}
	.st9{fill:#E7D7D0;}
	.st10{fill:#FFF1E5;}
	.st11{fill:#E7D0D0;}
	.st12{fill:#FFE5ED;}
	.st13{fill:#E30C32;}
	.st14{fill:#FFFCE8;}
	.st15{fill:#E7F3F0;}
	.st16{fill:#D2F0FF;}
	.st17{fill:#EEE4F0;}
	.st18{fill:#E62446;}
	.st19{fill:#FFFFFF;}
	.st20{fill:none;stroke:#000000;stroke-linecap:round;stroke-linejoin:round;stroke-miterlimit:10;}
	.st21{fill:#FFFFFF;stroke:#000000;stroke-miterlimit:10;}
	.st22{fill:#FFFFFF;stroke:#000000;stroke-linecap:round;stroke-miterlimit:10;}
	.st23{fill:#1A171B;}
	.st24{fill:#FAF2EF;}
</style>
<g>
	<path class="st0" d="M103.8,0.9c0.2,0,0.1-0.2,0.1-0.3C103.6,0.7,103.8,1,103.8,0.9z"/>
	<polygon class="st0" points="101.2,1.5 101.3,1.4 100.9,1.7 	"/>
	<path class="st0" d="M98.9,1.5c0.2,0.5,0.9-0.1,1.3,0.1l0.1,0.1l0.2-0.4C99.9,1.4,99.2,1.7,98.9,1.5z"/>
	<path class="st0" d="M97.6,0.5c0.1,0.2-0.3,0.2,0.3,0.1c0,0,0,0-0.1,0C97.8,0.5,97.7,0.5,97.6,0.5z"/>
	<path class="st0" d="M97.8,0.5C98.1,0.5,97.7,0.4,97.8,0.5L97.8,0.5z"/>
	<path class="st0" d="M96.7,0.6L97,0.5c-0.1-0.1-0.4-0.1-0.3-0.2C96.4,0.4,96.5,0.5,96.7,0.6z"/>
	<path class="st0" d="M96.4,1l0.2-0.1C96.5,0.9,96.5,0.9,96.4,1z"/>
	<path class="st0" d="M96.9,0.8l-0.4,0.1c0,0.1,0.1,0.2,0.2-0.1C96.7,1,96.8,0.9,96.9,0.8z"/>
	<path class="st0" d="M97.1,0.8c0.2,0.1,0.4,0.2,0.1,0.3C97.8,1.1,97.7,0.8,97.1,0.8z"/>
	<path class="st0" d="M98.7,2L99,2.1L99.2,2C99.1,2.1,98.7,1.9,98.7,2z"/>
	<path class="st0" d="M94.6,0.4c0,0.1,0.1,0.3,0.1,0.4L95,0.7C94.9,0.6,94.7,0.6,94.6,0.4z"/>
	<path class="st0" d="M94.8,0.8L94.4,1C94.7,1,94.8,0.9,94.8,0.8z"/>
	<polygon class="st0" points="96.3,1.5 96.9,1.1 96.2,1.5 	"/>
	<polygon class="st0" points="93.3,0.4 93.5,0.2 93.1,0.5 	"/>
	<path class="st0" d="M92.3,0.4c0.2-0.2-0.2-0.3,0-0.4c-0.2,0-0.5,0.2-0.7,0.3C91.8,0.3,92.1,0.3,92.3,0.4z"/>
	<path class="st0" d="M91.3,0.6c0.1,0,0.2-0.1,0.3-0.2C91.5,0.4,91.4,0.4,91.3,0.6z"/>
	<path class="st0" d="M93.8,0.9c0-0.1-0.1-0.2-0.3-0.3l0.1,0.3C93.7,0.9,93.7,0.9,93.8,0.9z"/>
	<path class="st0" d="M93.7,0.9L93.7,0.9c-0.2,0-0.3,0-0.3,0C93.4,0.9,93.5,0.9,93.7,0.9z"/>
	<path class="st0" d="M93.8,0.9C93.8,0.9,93.8,0.9,93.8,0.9C93.8,0.9,93.8,1,93.8,0.9z"/>
	<path class="st0" d="M95.4,1.2c-0.2,0.2-0.7,0.3-0.2,0.6C95.3,1.6,95,1.5,95.4,1.2z"/>
	<path class="st0" d="M94,1.3l0.4,0.1c0-0.1-0.1-0.2,0-0.3L94,1.3z"/>
	<polygon class="st0" points="93.8,1.4 94,1.3 93.9,1.2 	"/>
	<path class="st0" d="M92,0.8c-0.2,0.1-0.3,0.1-0.6,0.1C91.6,1,91.9,1,92.1,1C92.1,1,92.2,0.8,92,0.8z"/>
	<path class="st0" d="M92.8,0.9C92.8,0.9,92.8,0.9,92.8,0.9C92.8,0.9,92.8,0.9,92.8,0.9z"/>
	<path class="st0" d="M89.4,1C89.4,1,89.4,1,89.4,1C89.4,1,89.4,1,89.4,1L89.4,1z"/>
	<path class="st0" d="M92.1,1.1c0.2,0.1,0.3,0,0.4-0.1C92.4,1,92.2,1,92.1,1.1C92.1,1.1,92.1,1.1,92.1,1.1z"/>
	<path class="st0" d="M90.7,0.7c0.1,0.1,0.2,0.1,0.3,0.2C91,0.7,90.8,0.6,90.7,0.7z"/>
	<path class="st0" d="M92.7,0.8C92.7,0.8,92.7,0.8,92.7,0.8C92.7,0.8,92.7,0.8,92.7,0.8z"/>
	<path class="st0" d="M92.7,0.8c-0.1,0-0.2,0.1-0.2,0.2C92.6,1,92.7,0.9,92.7,0.8C92.7,0.9,92.7,0.9,92.7,0.8z"/>
	<path class="st0" d="M88.8,2.7c0-0.3,0.5-0.5,0.8-0.2c0.4-0.2,0.1-1-0.2-1.5c0,0.1,0,0.2-0.4,0.4c0.1,0.1,0.8,0.3,0.5,0.6
		c-0.5,0.1-0.4-0.1-0.7-0.2c0.2,0.3-0.6,0.5-0.5,0.9l0.4-0.2C88.8,2.6,88.7,2.7,88.8,2.7z"/>
	<path class="st0" d="M90.2,1l0.2,0c-0.2,0-0.3-0.1-0.5-0.3c-0.3,0.1-0.3,0.2-0.3,0.3L90.2,1L90.2,1z"/>
	<path class="st0" d="M91,1c-0.1,0.3-0.5,0.4-0.3,0.7c0.5,0,0.3-0.2,0.6-0.4C90.6,1.4,91.6,1.2,91,1c0.2,0,0.3,0,0.4,0
		c-0.1,0-0.3-0.1-0.4-0.1c0,0,0,0,0,0l0,0c0,0,0,0,0,0c0,0,0,0.1,0,0c0,0,0,0,0,0C91,0.9,91,1,91,1c-0.2-0.1,0-0.1,0-0.1
		c0,0,0,0,0,0c0,0,0,0,0,0L90.3,1C90.5,1,90.7,1,91,1z"/>
	<path class="st0" d="M94.7,2.4C94.7,2.4,94.7,2.4,94.7,2.4C94.7,2.4,94.7,2.4,94.7,2.4z"/>
	<path class="st0" d="M94.4,2.2c0.1,0,0.1-0.2,0.3-0.1c0.2,0.1,0,0.1,0,0.2c0.1-0.1,0.4-0.2,0-0.3l-0.1,0c-0.3-0.1-0.7-0.4-0.6-0.5
		C94.2,1.8,94.2,2,94.4,2.2z"/>
	<path class="st0" d="M92.7,1.7l-0.6,0.1l0.3,0.2l0-0.1C92.7,2,92.7,1.8,92.7,1.7z"/>
	<polygon class="st0" points="89.3,0.8 89.4,0.5 89,0.9 	"/>
	<polygon class="st0" points="88.5,0.9 88.5,0.6 88.3,0.8 	"/>
	<path class="st0" d="M43.1,4l-0.2,0.1C43,4.1,43.1,4.1,43.1,4z"/>
	<path class="st0" d="M44.4,4.1l0-0.1C44.4,4,44.4,4.1,44.4,4.1z"/>
	<path class="st0" d="M68.8,0.9c-0.3-0.2-0.6-0.6-0.5-0.3l0.1,0.3C68.5,0.8,68.6,0.8,68.8,0.9z"/>
	<path class="st0" d="M55.2,2.6C55.2,2.6,55.3,2.6,55.2,2.6c0.1,0,0.2-0.1,0.3-0.2C55.4,2.4,55.3,2.5,55.2,2.6z"/>
	<path class="st0" d="M55,3.7l-0.3-0.2C54.8,3.6,54.9,3.7,55,3.7z"/>
	<path class="st0" d="M35.9,4.3l-0.2,0.3C36,4.6,35.9,4.5,35.9,4.3z"/>
	<path class="st0" d="M80.3,1c-0.2-0.1-0.4-0.2-0.6-0.2C80,1,80.2,1.2,80.3,1z"/>
	<path class="st0" d="M43.6,1.1c-0.1,0.1-0.2,0.1-0.2,0.2C43.6,1.2,43.6,1.1,43.6,1.1z"/>
	<path class="st0" d="M79,0.8c0,0,0.1,0,0.1,0.1c0.2,0,0.3-0.1,0.5-0.1C79.5,0.7,79.3,0.6,79,0.8z"/>
	<path class="st0" d="M9.8,4.1C9.8,4.1,9.8,4.1,9.8,4.1C9.7,4.1,9.8,4.1,9.8,4.1z"/>
	<path class="st0" d="M2.2,1.3c0.1,0,0.2,0,0.3,0C2.5,1.2,2.4,1.2,2.2,1.3z"/>
	<path class="st0" d="M85.3,0.7C85.5,0.7,85.3,0.7,85.3,0.7L85.3,0.7z"/>
	<path class="st0" d="M86.1,1.8c0,0-0.1,0.1-0.1,0.1C86.1,1.9,86.1,1.9,86.1,1.8z"/>
	<path class="st0" d="M77.3,2.5C77.3,2.5,77.3,2.5,77.3,2.5C77.4,2.6,77.4,2.6,77.3,2.5z"/>
	<path class="st0" d="M85.5,0.9c-0.1,0-0.1-0.1-0.2-0.1C85.4,0.8,85.4,0.8,85.5,0.9z"/>
	<path class="st0" d="M85.5,0.7c0.1,0,0.1,0,0.1,0C85.7,0.7,85.7,0.7,85.5,0.7z"/>
	<path class="st0" d="M85,0.7c0.1,0,0.2,0,0.3,0c0,0,0,0,0,0C85.2,0.7,85.2,0.7,85,0.7z"/>
	<path class="st0" d="M23.8,3.4C23.8,3.3,23.8,3.3,23.8,3.4C23.6,3.4,23.7,3.4,23.8,3.4z"/>
	<path class="st0" d="M64.3,3.8C64.3,3.8,64.3,3.8,64.3,3.8C64.3,3.8,64.3,3.8,64.3,3.8L64.3,3.8z"/>
	<path class="st0" d="M63.7,4c0.3-0.3,0.4-0.3,0.6-0.2L64.1,3L63.7,4z"/>
	<path class="st0" d="M39.9,4.1l0.4,0.3c-0.5,0.4-0.9,0.3-0.5,0.6c0.1-0.9,1.7-0.1,1.7-1l0.3,0.2c-0.1,0-0.1,0-0.2,0
		c0.6,0.4,0.4-0.6,1.1-0.5c0.2,0.1,0.4,0.2,0.3,0.3l0.6-0.2c0.2,0,0.1,0.2,0,0.2l0.8-0.1l0,0c0.1-0.1,0.4-0.4,0.5-0.4
		c0.2,0.1-0.1,0.1-0.1,0.2l0.5-0.2c0.2,0.2-0.2,0.4-0.5,0.4c0.4,0.9,0.4-0.2,1.3,0.3l-0.4,0.1c0.3,0.5,0.6,0.3,1.1,0.6
		c-0.1-0.2-1-0.8-0.5-1C46.5,4,46.7,4,47,3.8c0,0.3,0.3,0.2,0.6,0.2l0,0.4c0.4-0.1,0.3-0.3,0.5-0.5c0.4,0,0.5,0.4,0.6,0.6
		C49.3,4.7,48.3,4.1,49,4c0.5,0.2,0.9,0,1.6-0.3c0.4,0.1-0.1,0.3,0.1,0.4L51,3.8c0.1,0,0.1,0.1,0,0.2c0.3-0.1,0-0.4,0.5-0.5
		c0.1-0.5,0.9,0.7,1.4,0.1c0.1,0.1-0.1,0.3,0,0.4c0.7-0.3,0.6-0.2,1.3-0.7l0.5,0.3c-0.4-0.3,0.1-0.7,0.5-1c-0.1-0.2-0.3-0.3-0.3-0.3
		L55.6,2c0.1,0.1,0,0.2-0.1,0.4c0,0,0.1-0.1,0.1-0.1c0.2,0.2,0.1,0.4-0.1,0.6c-0.1-0.1-0.2-0.2-0.2-0.3C55.1,2.9,55,3.2,55,3.4
		c0,0,0.1-0.1,0.2-0.1c0,0.1-0.1,0.1-0.1,0.2c0,0,0.1,0,0.2-0.2l0.2,0.5l0-0.2l0.9,0.3c0.6-0.5,1.2-1.1,2.2-1.3
		c-0.3,0.3-0.1,0.6-0.1,1c-0.3-0.4-0.8,0.2-1.3,0.1c0.3,0,0.2,0.2,0.1,0.3l0.9-0.4c0,0.3,0.2,0.2,0.4,0.4c-0.2-0.6,0.7-0.4,1.1-0.6
		c0,0.2-0.1,0.4-0.5,0.4c0.5,0.5,0.7-0.8,1.2-0.3c-0.1,0-0.2,0-0.2,0.1c0.3-0.2,0.9,0,0.8,0.1l-0.1,0c0.8,0.1,2.3,0,2.4-0.5
		c0,0.1-0.1,0.7-0.1,0.8l1.4-1.9c-0.1,0.5,0.3,1.6-0.3,1.9c0.2,0.1,0.4,0.1,0.8,0C65,3.7,64.8,3.1,65,3c0.5,0.5,0.3,0.3,0.9,0.7
		c-0.2-0.1,0-0.8,0.3-0.8c0,0.1,0,0.7-0.1,0.8L66.8,3c-0.2,0.1,0,0.6,0.1,0.8c-0.1-0.1,0.6,0,0.8-0.1l-0.3-0.2c0.8,0.1,0.8-1,1.6-1
		c-0.1,0.2-0.2,0.9,0.2,1c0.2-0.4,0.8-1.8,1.6-2.1L71,1.8l0.6-0.2c-0.3,0.6-1.3,1.7-1.8,2.2C70,3.9,69.8,4,70.2,4
		c0.2,0.2-0.3,0.3-0.4,0.3l1.1,0.1c0-0.4,0.8-0.4,0.8-0.8l-1.2,0.5c0-0.4,0.7-1.2,1.4-1.2c0.2,0.2-0.1,0.8-0.1,0.9
		c0.1-0.1,0.7-0.3,0.8-0.2l-0.3,0.2c0.4,0.2,0.7-0.6,1.2-0.2C73.7,3.8,74,4.3,74,4c-0.3-0.5-0.3-2-0.2-2.4c0.1,0,0.9,0.5,1.1,0.7
		c0.3,0.4-0.4,0.9-0.2,1.3c0-0.1,0.2-0.3,0.2-0.3c0.2,0.1-0.1,0.4,0.3,0.3c0.1-0.4,0.8,0,0.2-0.4C76,3.1,76,3.3,76.4,3.3
		c-0.1-0.3,0.4-1,0.8-1.1c0,0.1,0.1,0.3,0.1,0.3c0.8,0,1.2,0.2,2,0.2c0.1,0.1,0.4,0.2,0.3,0.4C79.7,3.1,79.8,3,80,3
		c0.4,0.4-0.5,0.1-0.2,0.5c0-0.3,0.6-0.4,0.9-0.5c-0.1-0.4-0.8-0.1-1.1,0.1c0-0.5,0.6-1.1,1.4-1.4C81.7,1.6,81.3,2,81.4,2
		c1.2,0.1,1-1,2-0.6c0.4,0.3,0,0.7,0.1,0.9c-0.5,0.1-0.8-0.2-1.1-0.2l0.4,0.2c-0.2,0.1-0.5,0.2-0.7,0.1c0.3,0.3,2,0.1,2.9,0.3
		c0.2-0.1,0.4-0.2,0.3-0.4l-0.3,0c-0.3-0.3,0.5-0.4,0.2-0.5c0.4-0.2,0.8-0.5,1.3-0.3L86.6,2c0-0.1-0.4-0.2-0.5-0.1
		c0.2-0.2,0.8,0.5,1.1,0l-0.4-0.3c0.4-0.2,0.9-0.6,1.3-0.5c-0.2-0.4-0.1,0-0.4-0.4c0.3,0.6-1.2,0-0.7,0.6c-0.3-0.5-0.6-0.2-1.1-0.7
		c0,0.1,0.2,0.3-0.2,0.2c0,0-0.1,0.1-0.1,0.1c0,0,0,0,0,0c0,0,0,0,0,0c0,0,0,0,0,0c0.1,0.1,0.2,0.1,0.2,0.2c-0.2,0.3-0.8,0.3-1,0.4
		c-0.2-0.1,0.1-0.2,0-0.3l-0.3,0.2c0-0.3-0.6-0.5-0.1-0.7l-0.5,0c-0.3-0.2-0.7-0.2-1-0.1c-0.2-0.1-0.6,0.3-0.4,0.1L81.7,1l0-0.1
		c-0.8,0-1.6,0.5-2.5,0c-0.3,0.1-0.5,0.2-1,0.1l-0.1-0.3c-0.3,0.1-1-0.3-1.2,0c-0.4-0.7-1.6-0.1-2.2-0.3l0,0.3
		c-0.4,0-0.8,0.1-1.3,0.2l0,0.3C73,1.5,72.3,1,71.6,1.1c0-0.1,0.2-0.1,0.3,0c-0.8-0.7-1.7,0.5-2.5,0c-0.2,0.1-0.3,0.1-0.5,0
		c0,0,0,0,0,0c0,0,0,0-0.1,0c-0.1,0-0.2-0.1-0.3-0.2C68.8,1,68.9,1,69,1c-0.1,0-0.4,0-0.6,0.1l-0.1-0.3c0,0,0,0,0,0
		C68,0.7,68.1,1,68.2,1.2c-0.1,0.1-0.2,0.1-0.3,0.2c-0.2-0.5-0.6,0.2-0.8-0.4c-0.1,0.3-1.1,0.2-1.2,0.7c0-0.1-0.1-0.1,0-0.1
		c-0.2-0.1-0.5-0.1-0.7,0l-0.1-0.4l-0.5,0.5c-0.3-0.2-0.4-0.4-0.1-0.7c-0.8,0.5-0.6,0.2-1.3,0.6l0-0.3c-0.2,0-0.6,0.4-0.7,0.1
		c-0.5-0.5-2.5-0.1-3.9-0.5c0.3,0.8-0.6-0.3-0.7,0.2C58,1.2,57.8,1.1,58,1c-0.7,0.2-1-0.3-1.5,0.2c-0.1-0.2,0.1-0.3,0.1-0.4
		c-0.1,0-0.2,0.2-0.3,0c-0.1-0.1,0.1-0.1,0.2-0.2c-0.7,0-0.8,0.6-0.8,1.1c-0.3-0.2-0.5-0.2-0.8,0.1c-0.1-0.2-0.3-0.3,0.1-0.4
		c-0.2,0-1.5-0.2-1.5,0.2c-0.1-0.1-0.3,0-0.4,0c-0.5,0-0.6-0.1-1.1,0l0.1,0.1c-0.2,0.5-0.4,0.1-0.9,0.2l0-0.1
		c-1-0.4-0.4,0.2-1.4-0.2L50,1.9c-0.1,0.7-0.9-0.4-1.4-0.1l0.2,0.2c-0.3,0.2-0.9-0.9-1.2-1c-0.1-0.1,0.1-0.1,0.2-0.1
		c-0.8-0.4-0.1,0.4-0.7,0.5c-0.1-0.2,0.1-0.6-0.3-0.6c-0.2-0.2-1.2,0.7-1.7,0.3c0.1,0.2,0.2,0.3,0,0.5c-0.4,0.1-1.2-0.6-1.5-0.1
		c-0.1,0-0.1-0.1-0.1-0.1c-0.3,0.1-1.1,0.2-1.3,0.5c-0.3-1.1-2,0.5-2-0.5l-1,0.1l0-0.1c-0.6-0.1-0.9,0.2-1.1,0.4
		c-0.1-0.1,0-0.2,0-0.2c-0.9-0.2-1-0.2-1.8,0.3l-0.1-0.3c-0.2,0.2-1.4-0.5-2.3-0.1c0,0,0-0.1,0.1-0.1c-1,0.4-2.5-0.9-2.9,0.3
		l-0.7,0.3c0.9,0.1-0.1,0.5,0.2,0.7c-0.3,0.1-0.9-0.4-0.5-0.4l0.1,0.1c0.2-0.6-1.1-0.2-1.1-0.6c-1.7,0-3.4-0.3-5.1-0.3l0.2,0.5
		l-0.6,0c-0.1-0.1-0.2-0.4,0.2-0.4c-0.2-0.3-0.7,0.2-0.7,0.3C22.5,1.3,23.6,1,23.4,1L23,1l0.1,0.1c-0.3,0.2-0.3,0.4-0.8,0.4
		C22,1.3,22.2,1.2,22,1.1c0,0,0,0-0.2,0l-0.7,0l0.3,0.4c-0.3,0.2-0.7,0-0.3,0.4c-0.5-0.7-2.7-0.2-3-0.4c-0.4,0.3-0.9,0.3-1.4,0.2
		c0.1,0.1,0.2,0.5-0.3,0.4c0.2-0.9-0.9-0.4-1.2-1c0.3,0.4-1.3,0.1-0.8,0.7c-0.4-0.1,0-0.3-0.3-0.5C13.1,1.6,12,1,10.9,1.2
		c0,0.1,0.2,0.3-0.1,0.5L10.2,1C10,1.1,10,1.7,9.6,1.3c0.1,0.1,0.1,0.2,0,0.3C7.3,1,4.9,2,2.7,1C3,1.2,2.8,1.2,2.5,1.2
		c0.2,0.1,0,0.3,0,0.4l-1-0.4c-0.2,0.4-1,0-1.1,0.4l0.3-0.1C0.4,2.1,1.3,2.7,1.3,3.3c0.5-0.6,1.2,0.8,1.9,0c0.2,0.1-0.1,0.2-0.1,0.3
		C3.3,3.4,3.6,3.4,4,3.5l0,0.1c1.2-0.1,1.7,0.2,3,0.4L6.9,3.6c0.3,0,0.3,0.1,0.5,0.2c0.3-0.5-0.8,0-0.5-0.5c0.4,0.6,2,0,2.3,0.7
		C9.5,4,9,3.7,9.4,3.7l0.1,0.2l0.1-0.2c0.3,0,0.4,0.3,0.4,0.4c-0.1,0-0.2,0-0.3,0.1c0.4,0.2,1.1-0.1,1.2,0L10.6,4
		c1.2-0.2,2.7,0.1,3.8-0.3l-0.1-0.1c0.9-0.3,0.7,0.2,1.7,0l0,0c0.2-0.1,0.5-0.2,0.7-0.2c-0.2,0.2,0.5,0.3,0.1,0.5
		c1-0.3,0.5-0.2,1.1-0.8l0.1,0.2C18.3,3.2,18.3,3,18.8,3c-0.4,0.2,0.3,0.4-0.1,0.6c1,0.5,1.5-0.5,2,0.2c0.5-0.7-0.9-0.4-0.6-0.5
		c-0.2-0.2,0.4-0.5,0.7-0.4c0.3,0,0.6,0.9,1.4,0.8c-0.1,0-0.1,0-0.2,0c0.3,0.2,0.6-0.2,1,0c0.2-0.4,0.5,0,0.5-0.5l-0.7,0.1
		c0.4-0.1,0.8-0.7,1.5-0.4c-0.1,0.1-0.3,0.2-0.4,0.3c0.2,0.2,0.4-0.1,0.6,0.1c-0.1,0.5-0.9,0.1-1.4,0.5c0.2,0.2,0.9-0.4,0.6,0.2
		C24,3.4,24.5,4.2,25,3.6L25,4c0.1,0,0.3-0.2,0.4-0.2l-0.3,0.4c0.4-0.3,0.9,0.3,1.3,0.1c-0.9,0-0.2-0.4-0.6-0.6
		c1.1-0.4,0.6,0.8,1.9,0.7c-0.2,0-0.6-0.2-0.4-0.3c0.2,0.1,0.5,0.2,0.7,0.3c0.8-0.1-0.1-0.3,0.2-0.5c0.3,0.4,0.4-0.2,0.8-0.3l0,0.3
		c0.9,0.2,0.2-0.7,1.1-0.4l-0.4,0.4l0.4-0.1l-0.1,0.4c0.5-0.3,0.6-0.2,1.1-0.1c-0.1-0.2,0.1-0.6,0.5-0.6c0.3,0.2-0.2,0.3,0.4,0.3
		c-0.1,0.2-0.3,0.4-0.5,0.2c0,0.1-0.1,0.2-0.2,0.3c0.3,0.2,0.8,0,1,0c-0.1,0-0.2,0-0.2-0.1L33,3.7c0.1,0.1,0,0.2-0.1,0.3
		c0.2,0,0.3-0.2,0.5-0.2c-0.1,0.3-0.1,0.5-0.4,0.6l0.8-0.3c0.1,0.1,0.4,0.3,0.3,0.4c0.5,0.1,1.1-0.5,1.7-0.3c0,0,0.1-0.1,0.2-0.1
		c0.6,0.1,1.1,0.4,1.7,0l0.4,0.5c0.5-0.1-0.5-0.6,0.4-0.7c0.6-0.1,0.2,0.4,0.4,0.5c0.3-0.2,0.8-0.7,1.4-0.3
		C40.3,4.2,40.1,4.1,39.9,4.1z M46.4,3.9C46.3,4,46,4.2,45.9,4C46.1,3.6,46.2,3.8,46.4,3.9z M56.2,3.2c-0.1,0.1-0.2,0.1-0.4-0.1
		C55.9,3.1,56,3.1,56.2,3.2z M83.4,1C83.4,1,83.4,1,83.4,1C83.1,0.9,83.2,0.9,83.4,1z M84,1.1C84,1.1,84,1,84,1
		c0,0.1-0.2,0.1-0.3,0.1C83.7,1.1,83.8,1.2,84,1.1z M22,1.2l0.1,0.1C21.8,1.4,21.9,1.3,22,1.2z"/>
	<path class="st0" d="M55.1,3.6c0-0.1,0-0.1-0.1-0.2C55,3.5,55,3.5,55.1,3.6z"/>
	<path class="st0" d="M35.9,4.3C35.9,4.3,35.9,4.3,35.9,4.3C35.9,4.3,35.9,4.3,35.9,4.3L35.9,4.3z"/>
	<path class="st0" d="M75,3.8c-0.1,0-0.2-0.1-0.2-0.2C74.8,3.7,74.9,3.8,75,3.8z"/>
	<path class="st0" d="M87,0.6l-0.4,0.1c0.2,0,0.2,0.1,0.3,0.1C87,0.7,86.9,0.6,87,0.6z"/>
	<path class="st0" d="M90.3,2.5c0.1,0,0.1,0,0.2,0l0-0.1C90.2,2.3,90,2.5,90.3,2.5z"/>
	<path class="st0" d="M87.4,1.6c0,0.3,0.3,0.2,0.5,0.1c0,0,0,0,0,0C87.9,1.4,87.7,1.5,87.4,1.6z"/>
	<path class="st0" d="M88,1.7c0.1,0,0.2,0,0.2,0C88.2,1.6,88.1,1.7,88,1.7z"/>
	<path class="st0" d="M84.7,1c0.1,0.1,0.1-0.3,0.1-0.2C85,0.4,84,1.1,84.7,1z"/>
	<polygon class="st0" points="87.6,2.5 87.5,2.2 87.4,2.4 	"/>
	<path class="st0" d="M85.6,2.3L86,2.4c0-0.1,0-0.1,0.1-0.1C85.8,2.2,85.5,2.2,85.6,2.3z"/>
	<path class="st0" d="M86.1,2.2c0.1,0,0.3,0,0.3-0.1C86.3,2.2,86.2,2.2,86.1,2.2z"/>
	<polygon class="st0" points="87,2.6 86.9,2.5 86.6,2.5 	"/>
	<path class="st0" d="M81.1,2.2l-0.5,0.1c0,0.1,0.1,0.2,0.2,0.1C81,2.3,81.2,2.3,81.1,2.2z"/>
	<path class="st0" d="M82.5,3.1c-0.1-0.1-0.1-0.1-0.2-0.2l0,0.4L82.5,3.1z"/>
	<path class="st0" d="M81.2,3.2c0,0.1-0.7,0.3-0.1,0.3C81.1,3.4,81.6,3.3,81.2,3.2z"/>
	<polygon class="st0" points="74.3,2.7 74.5,2.7 74.4,2 	"/>
	<path class="st0" d="M68.3,4.3C68.9,4.4,68.5,3.8,69,4c0.1-0.2-0.4-0.2-0.3-0.3C68.4,3.9,68.2,3.8,68.3,4.3z"/>
	<path class="st0" d="M68.7,3.7c0.1,0,0.1-0.1,0.2-0.1C68.8,3.7,68.7,3.7,68.7,3.7z"/>
	<polygon class="st0" points="0.9,0.9 0.6,0.8 0.8,1 	"/>
	<path class="st0" d="M0.3,1.4L0.2,1L0,1.4C0.1,1.3,0.2,1.3,0.3,1.4z"/>
	<path class="st0" d="M47.3,4.8l0-0.1c-0.1-0.1-0.1-0.1-0.3-0.1L47.3,4.8z"/>
	<polygon class="st0" points="42.7,4.5 42.7,4.5 42.6,4.1 	"/>
	<path class="st0" d="M38.7,4.9c0.2,0,0.3-0.1,0.5-0.1C38.9,5,38.7,4.5,38.7,4.9z"/>
</g>
</svg>
