<?xml version="1.0" encoding="utf-8"?>
<!-- Generator: Adobe Illustrator 21.1.0, SVG Export Plug-In . SVG Version: 6.00 Build 0)  -->
<svg version="1.1" id="Слой_1" xmlns="http://www.w3.org/2000/svg" xmlns:xlink="http://www.w3.org/1999/xlink" x="0px" y="0px"
	 viewBox="0 0 113.1 7.7" style="enable-background:new 0 0 113.1 7.7;" xml:space="preserve">
<style type="text/css">
	.st0{fill:#343434;}
	.st1{fill-rule:evenodd;clip-rule:evenodd;fill:#343434;}
	.st2{fill:#181818;}
	.st3{fill:none;stroke:#000000;stroke-miterlimit:10;}
	.st4{fill:#383838;}
	.st5{fill:#13110F;}
	.st6{fill:#342A32;}
	.st7{fill:#E5E1EA;}
	.st8{fill:#FEF4F2;}
	.st9{fill:#E7D7D0;}
	.st10{fill:#FFF1E5;}
	.st11{fill:#E7D0D0;}
	.st12{fill:#FFE5ED;}
	.st13{fill:#E30C32;}
	.st14{fill:#FFFCE8;}
	.st15{fill:#E7F3F0;}
	.st16{fill:#D2F0FF;}
	.st17{fill:#EEE4F0;}
	.st18{fill:#E62446;}
	.st19{fill:none;stroke:#000000;stroke-linecap:round;stroke-linejoin:round;stroke-miterlimit:10;}
	.st20{fill:none;stroke:#000000;stroke-linecap:round;stroke-miterlimit:10;}
	.st21{fill:#1A171B;}
	.st22{fill:#FAF2EF;}
	.st23{fill:#FFFFFF;stroke:#000000;stroke-miterlimit:10;}
</style>
<g>
	<path class="st2" d="M112.9,1.4c0.2,0,0.2-0.4,0.2-0.5C112.7,1.1,113,1.5,112.9,1.4z"/>
	<polygon class="st2" points="109,2.4 109.1,2.2 108.5,2.6 	"/>
	<path class="st2" d="M105.4,2.4c0.3,0.7,1.3-0.1,2,0.1l0.1,0.2l0.3-0.6C107,2.2,105.9,2.6,105.4,2.4z"/>
	<path class="st2" d="M103.4,0.8c0.1,0.3-0.4,0.2,0.5,0.1c0,0-0.1,0-0.1-0.1C103.7,0.8,103.6,0.8,103.4,0.8z"/>
	<path class="st2" d="M103.8,0.8C104.2,0.8,103.6,0.6,103.8,0.8L103.8,0.8z"/>
	<path class="st2" d="M102,1l0.5-0.2c-0.1-0.2-0.6-0.2-0.4-0.3C101.6,0.6,101.7,0.7,102,1z"/>
	<path class="st2" d="M101.5,1.5l0.3-0.1C101.8,1.3,101.7,1.3,101.5,1.5z"/>
	<path class="st2" d="M102.4,1.2l-0.6,0.2c0.1,0.1,0.1,0.3,0.3-0.1C102,1.5,102.1,1.3,102.4,1.2z"/>
	<path class="st2" d="M102.7,1.3c0.3,0.2,0.7,0.3,0.1,0.5C103.8,1.7,103.7,1.2,102.7,1.3z"/>
	<path class="st2" d="M105.2,3.1l0.4,0.2l0.3-0.2C105.7,3.2,105.2,2.9,105.2,3.1z"/>
	<path class="st2" d="M98.9,0.6c0,0.2,0.2,0.4,0.2,0.6l0.4-0.2C99.3,1,98.9,0.9,98.9,0.6z"/>
	<path class="st2" d="M99.1,1.2l-0.6,0.3C99,1.5,99.1,1.4,99.1,1.2z"/>
	<polygon class="st2" points="101.5,2.3 102.4,1.8 101.3,2.3 	"/>
	<polygon class="st2" points="96.7,0.6 97,0.3 96.5,0.8 	"/>
	<path class="st2" d="M95.3,0.7C95.5,0.4,95,0.2,95.2,0c-0.4,0.1-0.7,0.3-1,0.5C94.5,0.4,94.9,0.4,95.3,0.7z"/>
	<path class="st2" d="M93.7,0.9c0.2-0.1,0.3-0.2,0.5-0.3C94.1,0.6,93.9,0.7,93.7,0.9z"/>
	<path class="st2" d="M97.6,1.4c0-0.1-0.1-0.3-0.4-0.4l0.2,0.4C97.4,1.4,97.5,1.4,97.6,1.4z"/>
	<path class="st2" d="M97.4,1.4L97.4,1.4c-0.2,0-0.4,0-0.5,0C96.9,1.4,97.1,1.4,97.4,1.4z"/>
	<path class="st2" d="M97.6,1.4C97.6,1.4,97.6,1.4,97.6,1.4C97.6,1.5,97.6,1.5,97.6,1.4z"/>
	<path class="st2" d="M100,1.9c-0.3,0.2-1,0.5-0.4,0.9C99.9,2.5,99.5,2.3,100,1.9z"/>
	<path class="st2" d="M97.9,2L98.5,2c0-0.1-0.1-0.3,0-0.4L97.9,2z"/>
	<polygon class="st2" points="97.6,2.1 97.9,2 97.7,1.9 	"/>
	<path class="st2" d="M94.7,1.3c-0.3,0.2-0.5,0.2-0.9,0.2c0.3,0.1,0.7,0.1,1,0.1C95,1.5,95.1,1.2,94.7,1.3z"/>
	<path class="st2" d="M96,1.4C96,1.4,96,1.4,96,1.4C96,1.4,96,1.4,96,1.4z"/>
	<path class="st2" d="M90.8,1.5C90.8,1.5,90.8,1.5,90.8,1.5C90.8,1.5,90.8,1.5,90.8,1.5L90.8,1.5z"/>
	<path class="st2" d="M95,1.7c0.3,0.1,0.4,0,0.6-0.2C95.3,1.6,95.1,1.6,95,1.7C94.9,1.7,94.9,1.7,95,1.7z"/>
	<path class="st2" d="M92.9,1.1c0.1,0.1,0.3,0.2,0.4,0.2C93.2,1.2,92.9,0.9,92.9,1.1z"/>
	<path class="st2" d="M95.9,1.3C95.9,1.3,95.9,1.3,95.9,1.3C95.8,1.2,95.8,1.2,95.9,1.3z"/>
	<path class="st2" d="M95.9,1.3c-0.1,0.1-0.2,0.2-0.3,0.3c0.2,0,0.3-0.1,0.4-0.1C95.9,1.4,95.9,1.3,95.9,1.3z"/>
	<path class="st2" d="M89.8,4.2c0-0.4,0.7-0.8,1.3-0.3c0.6-0.3,0.2-1.6-0.3-2.3c0,0.2,0,0.3-0.6,0.6C90.4,2.3,91.5,2.6,91,3
		c-0.8,0.2-0.6-0.1-1-0.3c0.3,0.5-1,0.7-0.8,1.4l0.7-0.3C89.9,3.9,89.6,4.1,89.8,4.2z"/>
	<path class="st2" d="M91.9,1.6l0.2,0c-0.3-0.1-0.5-0.2-0.8-0.5c-0.4,0.2-0.5,0.3-0.5,0.5L91.9,1.6L91.9,1.6z"/>
	<path class="st2" d="M93.3,1.6c-0.2,0.4-0.8,0.6-0.4,1.1c0.7,0,0.5-0.4,0.9-0.5C92.6,2.2,94.1,1.8,93.3,1.6c0.2,0,0.4,0,0.6-0.1
		c-0.2-0.1-0.4-0.1-0.6-0.2c0,0,0,0,0,0l0,0c0,0,0,0,0,0c0,0.1,0.1,0.1,0,0.1c0,0,0,0,0,0C93.3,1.4,93.3,1.5,93.3,1.6
		c-0.3-0.1-0.1-0.1,0.1-0.2c0,0,0,0,0-0.1c0,0,0,0,0,0l-1.1,0.2C92.4,1.6,92.7,1.6,93.3,1.6z"/>
	<path class="st2" d="M99,3.7c0,0,0-0.1,0-0.1C98.9,3.7,98.9,3.7,99,3.7z"/>
	<path class="st2" d="M98.6,3.5c0.1-0.1,0.2-0.2,0.4-0.2c0.2,0.1,0,0.2,0,0.3c0.2-0.1,0.6-0.3,0.1-0.5L99,3.2
		c-0.5-0.1-1.1-0.7-1-0.7C98.1,2.8,98.2,3.1,98.6,3.5z"/>
	<path class="st2" d="M95.9,2.6l-1,0.2l0.5,0.4l0-0.2C95.9,3.1,95.8,2.8,95.9,2.6z"/>
	<polygon class="st2" points="90.7,1.3 90.8,0.8 90.2,1.5 	"/>
	<polygon class="st2" points="89.4,1.3 89.5,0.9 89.1,1.2 	"/>
	<path class="st2" d="M19.3,6.2L19,6.3C19.2,6.3,19.3,6.3,19.3,6.2z"/>
	<path class="st2" d="M21.4,6.3l0-0.2C21.3,6.2,21.3,6.3,21.4,6.3z"/>
	<path class="st2" d="M58.9,1.4C58.5,1,58,0.4,58.1,0.9l0.1,0.4C58.5,1.2,58.7,1.3,58.9,1.4z"/>
	<path class="st2" d="M38,4c0,0,0.1,0.1,0.1,0.1c0.1-0.1,0.2-0.3,0.3-0.4C38.3,3.8,38.2,3.9,38,4z"/>
	<path class="st2" d="M37.7,5.8l-0.5-0.3C37.3,5.6,37.5,5.7,37.7,5.8z"/>
	<path class="st2" d="M8.2,6.7L7.9,7.1C8.4,7.1,8.2,6.9,8.2,6.7z"/>
	<path class="st2" d="M76.7,1.5c-0.4-0.2-0.6-0.2-0.9-0.3C76.2,1.5,76.6,1.8,76.7,1.5z"/>
	<path class="st2" d="M20.1,1.6c-0.2,0.1-0.2,0.2-0.2,0.3C20.1,1.8,20.2,1.7,20.1,1.6z"/>
	<path class="st2" d="M74.8,1.2c0.1,0,0.1,0.1,0.2,0.1c0.3-0.1,0.5-0.1,0.8-0.1C75.5,1,75.1,0.9,74.8,1.2z"/>
	<path class="st2" d="M84.4,1.1C84.7,1.1,84.5,1.1,84.4,1.1L84.4,1.1z"/>
	<path class="st2" d="M85.7,2.8c-0.1,0-0.1,0.1-0.1,0.2C85.6,3,85.7,2.9,85.7,2.8z"/>
	<path class="st2" d="M72.2,3.9C72.2,3.9,72.2,3.9,72.2,3.9C72.2,4,72.2,4,72.2,3.9z"/>
	<path class="st2" d="M84.8,1.3c-0.1-0.1-0.2-0.1-0.3-0.1C84.5,1.2,84.6,1.3,84.8,1.3z"/>
	<path class="st2" d="M84.8,1.1c0.1,0,0.2,0,0.2,0C85,1.1,85,1.1,84.8,1.1z"/>
	<path class="st2" d="M84.1,1.2c0.2,0,0.3,0,0.4,0c-0.1,0-0.1-0.1-0.1-0.1C84.3,1.1,84.2,1.1,84.1,1.2z"/>
	<path class="st2" d="M52.1,5.9C52.1,5.9,52.1,5.9,52.1,5.9C52.1,5.8,52.1,5.8,52.1,5.9L52.1,5.9z"/>
	<path class="st2" d="M51.1,6.2c0.4-0.5,0.6-0.5,0.9-0.4l-0.3-1.3L51.1,6.2z"/>
	<path class="st2" d="M88.8,1.7c-0.3-0.6-0.2,0.1-0.7-0.6c0.5,0.9-1.9,0-1.2,0.9c-0.5-0.8-0.9-0.3-1.6-1c0,0.2,0.2,0.4-0.4,0.3
		c0,0.1-0.1,0.1-0.1,0.2c0,0,0,0,0,0c0,0,0,0,0,0c0,0,0,0,0,0c0.1,0.1,0.3,0.2,0.3,0.3c-0.3,0.5-1.3,0.4-1.6,0.7
		c-0.4-0.1,0.2-0.2,0-0.4L83,2.3c0-0.4-1-0.7-0.1-1l-0.8,0C81.7,1,81,0.9,80.7,1.1c-0.4-0.1-0.9,0.5-0.6,0.1l-1.2,0.3l0-0.1
		c-1.2-0.1-2.5,0.7-3.8-0.1c-0.4,0.1-0.8,0.3-1.5,0.1l-0.1-0.4c-0.5,0.1-1.6-0.4-1.8,0c-0.6-1-2.5-0.2-3.4-0.4l0,0.5
		c-0.6,0-1.2,0.1-2,0.3l0,0.4c-0.7,0.4-1.7-0.3-2.8-0.3c0.1-0.2,0.3-0.1,0.5,0c-1.3-1-2.7,0.7-3.8,0c-0.3,0.2-0.5,0.1-0.7,0
		c0,0,0.1,0,0.1,0c0,0-0.1,0-0.1,0c-0.1-0.1-0.3-0.2-0.4-0.2c0.1,0.1,0.2,0.2,0.3,0.2c-0.2,0-0.6,0.1-0.9,0.2l-0.1-0.5
		c0,0,0,0-0.1,0c-0.3-0.2-0.3,0.2-0.1,0.6c-0.2,0.1-0.3,0.2-0.4,0.3c-0.3-0.8-0.9,0.3-1.2-0.6c-0.2,0.4-1.7,0.3-1.8,1.2
		c0-0.1-0.1-0.2,0.1-0.2c-0.4-0.1-0.7-0.2-1.1,0L53.4,2l-0.8,0.8c-0.5-0.4-0.7-0.6-0.2-1.1c-1.2,0.7-0.9,0.3-1.9,1l0-0.4
		c-0.4,0-0.9,0.5-1.1,0.2c-0.8-0.8-3.9-0.1-6-0.8c0.4,1.2-0.9-0.5-1,0.4c-0.1-0.3-0.4-0.4-0.1-0.7c-1,0.3-1.6-0.4-2.3,0.3
		c-0.1-0.3,0.2-0.4,0.1-0.6c-0.1,0.1-0.3,0.2-0.4,0.1C39.6,1.2,39.9,1.1,40,1c-1.1,0-1.2,0.9-1.2,1.7c-0.5-0.4-0.8-0.3-1.2,0.2
		c-0.2-0.3-0.5-0.5,0.2-0.6c-0.4,0-2.3-0.4-2.3,0.3c-0.1-0.2-0.5,0-0.6,0c-0.8,0-0.9-0.1-1.7,0l0.2,0.1C33,3.4,32.7,2.8,32,2.9
		l0-0.1c-1.5-0.6-0.7,0.3-2.1-0.4L30,2.9c-0.1,1-1.3-0.6-2.2-0.2L28.1,3c-0.5,0.4-1.3-1.4-1.8-1.5c-0.1-0.1,0.2-0.1,0.3-0.2
		c-1.2-0.6-0.2,0.6-1.1,0.8c-0.2-0.3,0.2-0.9-0.4-0.9c-0.3-0.3-1.8,1.1-2.7,0.5c0.2,0.3,0.4,0.5-0.1,0.7c-0.7,0.1-1.8-1-2.4-0.2
		C19.9,2,19.9,2,19.9,1.9c-0.5,0.2-1.6,0.4-1.9,0.8C17.5,1,14.8,3.5,14.8,2l-1.6,0.1l0-0.2c-1-0.1-1.3,0.3-1.7,0.6
		c-0.2-0.1-0.1-0.2,0-0.3C10.1,1.9,10,2,8.8,2.7L8.6,2.2C8.3,2.5,6.5,1.4,5.1,2c0-0.1,0-0.2,0.2-0.2C3.7,2.4,1.5,0.4,0.9,2.2L0,2.6
		v0.1c1,0.2-0.4,0.8,0.2,1.1c-0.1,0-0.1,0-0.2,0v0.4c0.3,0.5,0.6,1,0.7,1.4c0,0.2,0.1,0.4,0.1,0.6c0.1,0,0.2,0,0.2,0.1
		C0.8,5.9,1.1,5.4,1.7,5.4c0.4,0.3-0.2,0.5,0.7,0.4C2.2,6.1,2,6.4,1.6,6c0,0.2-0.2,0.3-0.2,0.5c0.5,0.3,1.2,0.1,1.5,0.1
		c-0.1,0-0.3,0-0.4-0.1l1.3-0.7c0.2,0.2,0,0.3-0.1,0.5c0.3-0.1,0.5-0.3,0.8-0.3c-0.1,0.4-0.1,0.8-0.6,1l1.3-0.4
		c0.1,0.2,0.6,0.5,0.5,0.6c0.7,0.2,1.7-0.8,2.6-0.5c0-0.1,0.1-0.1,0.3-0.2c0.9,0.1,1.6,0.6,2.7,0l0.6,0.7C12.6,7,11,6.3,12.4,6
		c0.9-0.2,0.4,0.6,0.7,0.8c0.5-0.4,1.3-1.1,2.2-0.5c-0.3,0.1-0.5,0-0.8,0.1l0.7,0.4c-0.8,0.6-1.4,0.4-0.8,1c0.1-1.4,2.6-0.1,2.7-1.5
		l0.4,0.3c-0.1,0-0.1,0.1-0.3,0.1c0.9,0.7,0.6-1,1.7-0.8c0.4,0.1,0.6,0.3,0.4,0.5l0.9-0.3c0.2,0,0.2,0.3-0.1,0.2L21.4,6l0,0
		c0.2-0.2,0.6-0.5,0.8-0.7c0.3,0.2-0.2,0.1-0.1,0.3l0.7-0.3c0.3,0.4-0.3,0.7-0.8,0.6c0.7,1.4,0.6-0.3,2,0.5l-0.7,0.2
		c0.4,0.8,1,0.5,1.7,1c-0.2-0.3-1.5-1.2-0.8-1.5c0.2,0.1,0.5,0.2,0.9-0.1c0,0.5,0.4,0.4,0.9,0.3l0,0.6c0.6-0.2,0.5-0.5,0.8-0.8
		c0.6,0.1,0.7,0.6,0.9,1c1,0.1-0.7-0.8,0.5-0.9c0.8,0.2,1.4,0,2.4-0.4C31.4,6,30.7,6.2,31,6.3l0.5-0.5c0.1,0,0.1,0.2,0.1,0.2
		c0.4-0.2,0-0.6,0.7-0.8c0.2-0.7,1.4,1,2.2,0.2c0.2,0.2-0.1,0.4,0,0.6c1.2-0.5,1-0.4,1.9-1.1l0.8,0.4C36.6,5,37.4,4.4,38,4
		c-0.2-0.2-0.4-0.4-0.5-0.5l1.1-0.3c0.1,0.1,0,0.3-0.2,0.6c0.1-0.1,0.1-0.1,0.2-0.2c0.4,0.2,0.2,0.6-0.1,1c-0.1-0.1-0.3-0.3-0.4-0.4
		c-0.3,0.4-0.5,0.8-0.5,1.2c0.1-0.1,0.2-0.1,0.3-0.2C38,5.2,37.9,5.3,38,5.4c0,0.1,0.1-0.1,0.3-0.2l0.2,0.7l0.1-0.3L40,6
		c1-0.7,1.9-1.8,3.4-2.1c-0.4,0.5-0.1,0.9-0.1,1.5c-0.4-0.7-1.2,0.3-2,0.1c0.4,0.1,0.3,0.4,0.2,0.5l1.5-0.6c0,0.5,0.3,0.4,0.7,0.6
		c-0.3-1,1.1-0.7,1.7-1c0,0.3-0.1,0.7-0.8,0.6c0.8,0.8,1-1.2,1.8-0.5c-0.2,0-0.3,0-0.3,0.1c0.4-0.3,1.4-0.1,1.2,0.2l-0.2,0
		c1.2,0.1,3.6,0,3.7-0.8c0,0.1-0.2,1-0.2,1.2L52.5,3c-0.2,0.7,0.5,2.5-0.4,2.9c0.3,0.1,0.6,0.2,1.2,0c-0.2-0.1-0.5-1.1-0.2-1.1
		c0.7,0.8,0.5,0.4,1.4,1.1c-0.3-0.2,0-1.3,0.5-1.3c-0.1,0.2,0,1.1-0.1,1.2l1.1-1.1c-0.3,0.2,0,1,0.2,1.3c-0.1-0.2,1,0,1.3-0.1
		l-0.5-0.3c1.3,0.2,1.2-1.6,2.5-1.5c-0.2,0.2-0.4,1.4,0.3,1.6C60,5.1,61,2.9,62.1,2.4l0.2,0.3l0.9-0.4c-0.5,0.9-2,2.7-2.8,3.4
		c0.5,0.3,0.1,0.4,0.8,0.4c0.3,0.3-0.4,0.5-0.6,0.5l1.7,0.2c-0.1-0.7,1.3-0.7,1.2-1.2l-1.8,0.7c-0.1-0.7,1-1.9,2.2-1.8
		c0.3,0.3-0.2,1.2-0.2,1.4c0.2-0.2,1.1-0.4,1.2-0.3L64.4,6c0.7,0.3,1.1-0.9,1.8-0.2c0.3,0,0.8,0.9,0.9,0.5c-0.4-0.8-0.5-3.1-0.2-3.7
		c0.1,0.1,1.4,0.7,1.7,1.1c0.4,0.6-0.7,1.4-0.3,2c0-0.2,0.3-0.4,0.4-0.5c0.3,0.2-0.1,0.6,0.5,0.5c0.1-0.7,1.3,0.1,0.3-0.6
		c0.6-0.2,0.6,0.1,1.3,0.1c-0.2-0.4,0.6-1.5,1.2-1.7c0,0.2,0.1,0.4,0.2,0.5c1.2,0.1,1.9,0.4,3.1,0.4c0.1,0.2,0.7,0.4,0.4,0.7
		c0.2-0.1,0.3-0.4,0.7-0.4c0.7,0.6-0.8,0.1-0.3,0.8c0-0.4,0.9-0.5,1.4-0.8c-0.2-0.6-1.2-0.1-1.7,0.1c0-0.8,0.9-1.7,2.1-2.1
		c1-0.2,0.4,0.5,0.6,0.4c1.8,0.1,1.5-1.5,3-0.9c0.6,0.5,0,1.1,0.2,1.5c-0.8,0.2-1.2-0.3-1.7-0.3l0.7,0.3c-0.2,0.2-0.8,0.3-1.1,0.2
		c0.5,0.5,3,0.1,4.4,0.5c0.2-0.2,0.7-0.4,0.5-0.6L84,3.8c-0.4-0.4,0.8-0.6,0.3-0.8c0.6-0.3,1.2-0.8,2.1-0.5L86.5,3
		c0-0.2-0.5-0.4-0.8-0.2c0.3-0.3,1.3,0.8,1.6,0l-0.6-0.4C87.4,2.1,88.1,1.5,88.8,1.7z M23.7,6.2c0.2-0.6,0.4-0.3,0.7-0.1
		C24.2,6.1,23.8,6.5,23.7,6.2z M38.9,4.8c0.2,0,0.4,0,0.6,0.1C39.3,5,39.1,5,38.9,4.8z"/>
	<path class="st2" d="M81.5,1.5C81.5,1.5,81.5,1.5,81.5,1.5C81.1,1.4,81.2,1.4,81.5,1.5z"/>
	<path class="st2" d="M37.8,5.5c-0.1-0.1-0.1-0.2-0.1-0.3C37.6,5.4,37.6,5.5,37.8,5.5z"/>
	<path class="st2" d="M8.3,6.6C8.3,6.6,8.3,6.6,8.3,6.6C8.2,6.6,8.2,6.7,8.3,6.6L8.3,6.6z"/>
	<path class="st2" d="M68.6,5.8c-0.2-0.1-0.3-0.2-0.4-0.2C68.3,5.7,68.3,5.8,68.6,5.8z"/>
	<path class="st2" d="M87.1,0.9L86.6,1c0.3,0,0.4,0.1,0.5,0.2C87.1,1.1,87,0.9,87.1,0.9z"/>
	<path class="st2" d="M92.1,3.9c0.1-0.1,0.2,0,0.3-0.1l0-0.2C92,3.6,91.7,3.8,92.1,3.9z"/>
	<path class="st2" d="M87.7,2.5c0,0.4,0.4,0.3,0.8,0.2c0,0,0,0-0.1,0C88.5,2.1,88.1,2.3,87.7,2.5z"/>
	<path class="st2" d="M88.6,2.7c0.1,0,0.2,0,0.4,0C89,2.5,88.8,2.6,88.6,2.7z"/>
	<path class="st2" d="M83.6,1.5c0.2,0.1,0.1-0.5,0.2-0.4C84,0.6,82.5,1.7,83.6,1.5z"/>
	<polygon class="st2" points="88,3.9 87.9,3.4 87.6,3.8 	"/>
	<path class="st2" d="M84.8,3.5l0.6,0.1c0-0.1,0.1-0.1,0.2-0.2C85.3,3.4,84.8,3.3,84.8,3.5z"/>
	<path class="st2" d="M85.6,3.5c0.2,0,0.4,0,0.5-0.1C86.1,3.4,85.8,3.4,85.6,3.5z"/>
	<polygon class="st2" points="87.1,4 86.9,3.9 86.5,3.9 	"/>
	<path class="st2" d="M78,3.4l-0.7,0.1c-0.1,0.2,0.1,0.3,0.4,0.2C77.8,3.6,78.1,3.6,78,3.4z"/>
	<path class="st2" d="M80.1,4.8c-0.2-0.1-0.2-0.2-0.3-0.4l0,0.6L80.1,4.8z"/>
	<path class="st2" d="M78,4.9c-0.1,0.2-1,0.5-0.1,0.5C78,5.2,78.7,5.1,78,4.9z"/>
	<polygon class="st2" points="67.5,4.1 67.7,4.1 67.7,3.1 	"/>
	<path class="st2" d="M58.3,6.6c0.8,0.2,0.2-0.6,0.9-0.3C59.4,6,58.6,6,58.8,5.8C58.3,6,58,5.9,58.3,6.6z"/>
	<path class="st2" d="M58.8,5.8c0.1,0,0.2-0.1,0.3-0.2C58.9,5.7,58.8,5.7,58.8,5.8z"/>
	<path class="st2" d="M25.9,7.4l0-0.2C25.8,7,25.7,7,25.4,7L25.9,7.4z"/>
	<polygon class="st2" points="18.7,6.9 18.8,6.9 18.5,6.3 	"/>
	<path class="st2" d="M12.6,7.6c0.2,0,0.5-0.1,0.8-0.1C12.9,7.6,12.5,6.9,12.6,7.6z"/>
</g>
</svg>
