<?xml version="1.0" encoding="UTF-8" standalone="no"?>
<!-- Generator: Adobe Illustrator 16.0.4, SVG Export Plug-In . SVG Version: 6.00 Build 0)  -->

<svg
   xmlns:dc="http://purl.org/dc/elements/1.1/"
   xmlns:cc="http://creativecommons.org/ns#"
   xmlns:rdf="http://www.w3.org/1999/02/22-rdf-syntax-ns#"
   xmlns:svg="http://www.w3.org/2000/svg"
   xmlns="http://www.w3.org/2000/svg"
   xmlns:sodipodi="http://sodipodi.sourceforge.net/DTD/sodipodi-0.dtd"
   xmlns:inkscape="http://www.inkscape.org/namespaces/inkscape"
   version="1.1"
   id="Capa_1"
   x="0px"
   y="0px"
   width="512"
   height="417"
   viewBox="0 0 512 417"
   enable-background="new 0 0 512 512"
   xml:space="preserve"
   inkscape:version="0.91 r13725"
   sodipodi:docname="soc-twitter.svg"><metadata
     id="metadata9"><rdf:RDF><cc:Work
         rdf:about=""><dc:format>image/svg+xml</dc:format><dc:type
           rdf:resource="http://purl.org/dc/dcmitype/StillImage" /><dc:title></dc:title></cc:Work></rdf:RDF></metadata><defs
     id="defs7" /><sodipodi:namedview
     pagecolor="#ffffff"
     bordercolor="#666666"
     borderopacity="1"
     objecttolerance="10"
     gridtolerance="10"
     guidetolerance="10"
     inkscape:pageopacity="0"
     inkscape:pageshadow="2"
     inkscape:window-width="1600"
     inkscape:window-height="848"
     id="namedview5"
     showgrid="false"
     inkscape:zoom="0.4609375"
     inkscape:cx="256"
     inkscape:cy="256"
     inkscape:window-x="0"
     inkscape:window-y="0"
     inkscape:window-maximized="1"
     inkscape:current-layer="Capa_1" /><path
     d="M 512,49.362722 C 493.16203,57.734992 472.91806,63.394343 451.67012,65.938895 473.35707,52.910464 490.01303,32.280444 497.85703,7.696796 477.55807,19.762126 455.07911,28.522243 431.15216,33.242544 411.99219,12.782896 384.69124,0 354.47831,0 c -58.01089,0 -105.0428,47.131854 -105.0428,105.26872 0,8.25101 0.929,16.28554 2.72,23.99136 C 164.85568,124.86849 87.454829,82.959038 35.64693,19.267046 26.604948,34.814975 21.423958,52.898438 21.423958,72.19154 c 0,36.5237 18.543964,68.74602 46.729909,87.62422 -17.218967,-0.5472 -33.415935,-5.28253 -47.576907,-13.16774 -0.01,0.43896 -0.01,0.87992 -0.01,1.32389 0,51.00531 36.208929,93.55216 84.26084,103.22527 -8.812988,2.40424 -18.09397,3.69406 -27.673951,3.69406 -6.768987,0 -13.348974,-0.66145 -19.763961,-1.89113 13.367974,41.82127 52.159892,72.26169 98.125812,73.10854 C 119.56577,354.34527 74.272855,371.174 25.057951,371.174 16.578968,371.174 8.2179838,370.67591 0,369.69978 46.485909,399.57097 101.7008,417 161.02069,417 354.2313,417 459.8881,256.58794 459.8881,117.47436 c 0,-4.56396 -0.103,-9.10387 -0.305,-13.61972 C 480.11006,89.01325 497.91803,70.47279 512,49.362722 Z"
     id="path3"
     inkscape:connector-curvature="0"
     style="fill:#343434" /></svg>