<?xml version="1.0" encoding="utf-8"?>
<!-- Generator: Adobe Illustrator 21.1.0, SVG Export Plug-In . SVG Version: 6.00 Build 0)  -->
<svg version="1.1" id="Слой_1" xmlns="http://www.w3.org/2000/svg" xmlns:xlink="http://www.w3.org/1999/xlink" x="0px" y="0px"
	 viewBox="0 0 12 12" style="enable-background:new 0 0 12 12;" xml:space="preserve">
<style type="text/css">
	.st0{fill:#fff;}
	.st1{fill-rule:evenodd;clip-rule:evenodd;fill:#fff;}
	.st2{fill:#181818;}
	.st3{fill:none;stroke:#000000;stroke-miterlimit:10;}
	.st4{fill:#383838;}
	.st5{fill:#13110F;}
	.st6{fill:#342A32;}
	.st7{fill:#E5E1EA;}
	.st8{fill:#FEF4F2;}
	.st9{fill:#E7D7D0;}
	.st10{fill:#FFF1E5;}
	.st11{fill:#E7D0D0;}
	.st12{fill:#FFE5ED;}
	.st13{fill:#E30C32;}
	.st14{fill:#FFFCE8;}
	.st15{fill:#E7F3F0;}
	.st16{fill:#D2F0FF;}
	.st17{fill:#EEE4F0;}
	.st18{fill:#E62446;}
	.st19{fill:#FFFFFF;}
	.st20{fill:none;stroke:#000000;stroke-linecap:round;stroke-linejoin:round;stroke-miterlimit:10;}
	.st21{fill:#FFFFFF;stroke:#000000;stroke-miterlimit:10;}
	.st22{fill:#FFFFFF;stroke:#000000;stroke-linecap:round;stroke-miterlimit:10;}
	.st23{fill:#1A171B;}
	.st24{fill:#FAF2EF;}
</style>
<path class="st0" d="M1.5,0h8.9C11.3,0,12,0.7,12,1.5v8.9c0,0.8-0.7,1.5-1.5,1.5H1.5C0.7,12,0,11.3,0,10.5V1.5C0,0.7,0.7,0,1.5,0
	L1.5,0z M8.7,1.3c-0.3,0-0.5,0.2-0.5,0.5v1.3c0,0.3,0.2,0.5,0.5,0.5h1.4c0.3,0,0.5-0.2,0.5-0.5V1.9c0-0.3-0.2-0.5-0.5-0.5H8.7z
	 M10.6,5.1H9.6c0.1,0.3,0.2,0.7,0.2,1c0,2-1.7,3.6-3.7,3.6C4,9.7,2.3,8.1,2.3,6.1c0-0.4,0.1-0.7,0.2-1H1.3v5.1
	c0,0.3,0.2,0.5,0.5,0.5h8.4c0.3,0,0.5-0.2,0.5-0.5V5.1z M6,3.6c-1.3,0-2.4,1-2.4,2.3c0,1.3,1.1,2.3,2.4,2.3c1.3,0,2.4-1,2.4-2.3
	C8.4,4.7,7.3,3.6,6,3.6L6,3.6z M6,3.6"/>
</svg>
