<?xml version="1.0" encoding="utf-8"?>
<!-- Generator: Adobe Illustrator 21.1.0, SVG Export Plug-In . SVG Version: 6.00 Build 0)  -->
<svg version="1.1" id="Слой_1" xmlns="http://www.w3.org/2000/svg" xmlns:xlink="http://www.w3.org/1999/xlink" x="0px" y="0px"
	 viewBox="0 0 15.9 9" style="enable-background:new 0 0 15.9 9;" xml:space="preserve">
<style type="text/css">
	.st0{fill:#fff;}
	.st1{fill-rule:evenodd;clip-rule:evenodd;fill:#fff;}
	.st2{fill:#181818;}
	.st3{fill:none;stroke:#000000;stroke-miterlimit:10;}
	.st4{fill:#383838;}
	.st5{fill:#13110F;}
	.st6{fill:#342A32;}
	.st7{fill:#E5E1EA;}
	.st8{fill:#FEF4F2;}
	.st9{fill:#E7D7D0;}
	.st10{fill:#FFF1E5;}
	.st11{fill:#E7D0D0;}
	.st12{fill:#FFE5ED;}
	.st13{fill:#E30C32;}
	.st14{fill:#FFFCE8;}
	.st15{fill:#E7F3F0;}
	.st16{fill:#D2F0FF;}
	.st17{fill:#EEE4F0;}
	.st18{fill:#E62446;}
	.st19{fill:#FFFFFF;}
	.st20{fill:none;stroke:#000000;stroke-linecap:round;stroke-linejoin:round;stroke-miterlimit:10;}
	.st21{fill:#FFFFFF;stroke:#000000;stroke-miterlimit:10;}
	.st22{fill:#FFFFFF;stroke:#000000;stroke-linecap:round;stroke-miterlimit:10;}
	.st23{fill:#1A171B;}
	.st24{fill:#FAF2EF;}
</style>
<path class="st1" d="M13.7,5.7c0.5,0.5,1.1,1,1.6,1.6c0.2,0.3,0.4,0.5,0.6,0.8C16,8.5,15.8,9,15.5,9l-2.3,0c-0.6,0-1.1-0.2-1.5-0.6
	c-0.3-0.3-0.6-0.7-0.9-1c-0.1-0.1-0.3-0.3-0.4-0.4C10,6.8,9.7,6.9,9.5,7.2C9.4,7.5,9.3,7.9,9.3,8.3C9.3,8.8,9.1,9,8.6,9
	C7.4,9,6.3,8.9,5.2,8.3C4.3,7.8,3.6,7,3,6.2C1.8,4.6,0.9,2.8,0.1,1c-0.2-0.4,0-0.6,0.4-0.6c0.8,0,1.5,0,2.3,0c0.3,0,0.5,0.2,0.6,0.5
	c0.4,1,0.9,2,1.5,2.8c0.2,0.2,0.3,0.5,0.6,0.6C5.8,4.5,6,4.4,6.1,4.1c0.1-0.2,0.1-0.4,0.1-0.6c0.1-0.7,0.1-1.4,0-2.1
	C6.1,1,5.9,0.7,5.5,0.6c-0.2,0-0.2-0.1-0.1-0.3C5.6,0.1,5.7,0,6.1,0h2.6c0.4,0.1,0.5,0.3,0.6,0.7l0,2.9c0,0.2,0.1,0.6,0.4,0.7
	c0.2,0.1,0.4-0.1,0.5-0.3c0.6-0.7,1.1-1.5,1.5-2.3c0.2-0.4,0.3-0.7,0.5-1.1c0.1-0.3,0.3-0.4,0.6-0.4l2.5,0c0.1,0,0.2,0,0.2,0
	C15.9,0.4,16,0.6,15.9,1c-0.2,0.7-0.6,1.2-1,1.7c-0.4,0.6-0.9,1.1-1.3,1.7C13.2,5,13.2,5.3,13.7,5.7L13.7,5.7z M13.7,5.7"/>
</svg>
